<?xml version="1.0" encoding="UTF-8"?>
<svg version="1.1" xmlns="http://www.w3.org/2000/svg" width="590" height="592">
<path d="M0 0 C0.98097656 0.16097168 1.96195312 0.32194336 2.97265625 0.48779297 C50.99604031 8.46869061 95.82621338 29.00245815 134 59 C134.98355469 59.76957031 135.96710938 60.53914063 136.98046875 61.33203125 C152.7244731 73.9408659 167.52108834 88.15241779 180 104 C180.94157034 105.14264008 181.885728 106.28315149 182.83203125 107.421875 C190.32597949 116.49675832 196.89316924 125.9428131 203 136 C203.4846875 136.79647949 203.969375 137.59295898 204.46875 138.41357422 C223.82436737 170.5280214 236.49888452 205.10874944 243 242 C243.17499023 242.91185059 243.34998047 243.82370117 243.53027344 244.76318359 C249.14311959 274.62241368 248.50468252 309.17804679 243 339 C242.82839355 339.9708252 242.65678711 340.94165039 242.47998047 341.94189453 C232.65748858 396.42644071 208.35001246 445.41778878 172 487 C171.25234375 487.85980469 170.5046875 488.71960938 169.734375 489.60546875 C161.38240207 499.05401366 152.63842092 507.97290752 142.7421875 515.80859375 C140.92382316 517.26173106 139.13618435 518.7542271 137.3828125 520.28515625 C100.51255853 552.40301204 52.41378006 572.31542422 4.75 581.25 C3.94860596 581.40122314 3.14721191 581.55244629 2.3215332 581.70825195 C-14.07929022 584.58835689 -30.438819 585.37829456 -47.0625 585.3125 C-48.04789764 585.31034485 -49.03329529 585.3081897 -50.04855347 585.30596924 C-65.55125666 585.25172287 -80.69936372 584.70796779 -96 582 C-97.08845215 581.81195801 -98.1769043 581.62391602 -99.29833984 581.43017578 C-144.60110121 573.32865764 -188.81281784 554.61437872 -225 526 C-225.81082031 525.36964844 -226.62164062 524.73929688 -227.45703125 524.08984375 C-229.99809385 522.09065556 -232.50364064 520.05475193 -235 518 C-235.50724609 517.58443848 -236.01449219 517.16887695 -236.53710938 516.74072266 C-250.29341786 505.41272311 -263.03921146 493.07575509 -274 479 C-274.94904991 477.83757423 -275.90106959 476.67756909 -276.85546875 475.51953125 C-315.79334293 428.07061229 -340.89863689 365.2352346 -341.203125 303.5234375 C-341.21018463 302.56328232 -341.21724426 301.60312714 -341.22451782 300.61387634 C-341.45321801 260.37747055 -341.45321801 260.37747055 -338 242 C-337.68603271 240.30738037 -337.68603271 240.30738037 -337.36572266 238.58056641 C-334.54023246 223.74124387 -331.06835407 209.2343333 -326 195 C-325.71962891 194.19643066 -325.43925781 193.39286133 -325.15039062 192.56494141 C-307.05463485 141.14383407 -273.87794358 91.73540715 -229.59130859 59.18994141 C-228.02875734 58.02150403 -226.50779245 56.7981052 -224.98828125 55.57421875 C-188.40430538 26.2039846 -141.98008626 7.80066563 -96 0 C-94.58968506 -0.24556641 -94.58968506 -0.24556641 -93.15087891 -0.49609375 C-63.11651506 -5.47695108 -29.9678039 -5.29059932 0 0 Z " fill="#FEFEFE" transform="translate(342,5)"/>
<path d="M0 0 C2.31 0 4.62 0 7 0 C7 59.4 7 118.8 7 180 C2.05 180.99 2.05 180.99 -3 182 C-9.03861491 185.61320149 -12.90887633 190.33454329 -15 197 C-15.33 197.99 -15.66 198.98 -16 200 C-16.61111588 208.91628094 -17.06758882 217.24957005 -12 225 C-11.62617188 225.58265625 -11.25234375 226.1653125 -10.8671875 226.765625 C-7.89776162 230.81662985 -4.65184888 232.36777232 0 234 C0.9075 234.391875 1.815 234.78375 2.75 235.1875 C10.89052668 237.22263167 18.9620156 235.95282918 27 234 C27 233.34 27 232.68 27 232 C31.47058824 228 31.47058824 228 34 228 C34.37125 227.01 34.37125 227.01 34.75 226 C36 223 36 223 38.125 219.625 C41.49342293 212.92628722 41.35101627 204.33943935 39.15234375 197.27734375 C35.38680761 189.83562318 28.7075252 184.08301008 21 181 C19.35 180.67 17.7 180.34 16 180 C16 120.93 16 61.86 16 1 C22 1 22 1 23.76171875 2.69775391 C25.02808979 5.0522253 25.9631831 7.30107558 26.8125 9.8359375 C29.04663975 16.23041923 31.60541171 22.47507339 34.20898438 28.72558594 C35.00143066 30.62843535 35.790055 32.53283454 36.578125 34.4375 C52.79810564 73.56739581 72.46220329 110.80414397 99 144 C99.68320312 144.87527344 100.36640625 145.75054687 101.0703125 146.65234375 C105.14460009 151.83707443 109.42449148 156.78043812 113.8671875 161.65234375 C116.23535301 164.25906073 118.53018308 166.92193757 120.82421875 169.59375 C122.69995966 171.66817801 124.62046009 173.66392689 126.58203125 175.65625 C127.22438721 176.31794189 127.86674316 176.97963379 128.52856445 177.66137695 C129.82861904 178.99749497 131.14080105 180.32193363 132.46557617 181.63354492 C133.06474854 182.25334229 133.6639209 182.87313965 134.28125 183.51171875 C134.82845703 184.06303467 135.37566406 184.61435059 135.93945312 185.18237305 C137 187 137 187 136.78320312 189.42504883 C136.02664592 191.91239571 135.18366848 194.28637677 134.1875 196.6875 C133.83042969 197.55761719 133.47335937 198.42773438 133.10546875 199.32421875 C132.74066406 200.20722656 132.37585938 201.09023438 132 202 C131.33110755 203.66577463 130.66440218 205.33242932 130 207 C128.66666667 210.33333333 127.33333333 213.66666667 126 217 C125.67257812 217.82121338 125.34515625 218.64242676 125.0078125 219.48852539 C124.32246582 221.19641331 123.62946137 222.90124394 122.9296875 224.60327148 C120.53666028 230.45787906 118.72515374 236.28813949 117.125 242.41015625 C116.24677178 245.21255811 115.28954695 247.64397151 114.0625 250.2890625 C111.83210751 255.16959497 110.3936862 260.14069167 109 265.3125 C107.38992495 271.14113454 105.75500817 276.91671181 103.75 282.625 C102.20560389 287.09294432 101.25390777 291.45842502 100.58984375 296.13671875 C99.9157415 299.40901642 98.87305464 302.45412946 97.79125977 305.61108398 C96.52751537 309.42649248 95.51209136 313.29911029 94.5 317.1875 C94.20029297 318.30995117 94.20029297 318.30995117 93.89453125 319.45507812 C92.01914748 326.60423219 90.55384076 333.74874312 89 341 C86.69 351.23 84.38 361.46 82 372 C35.8 372 -10.4 372 -58 372 C-62.46800731 355.24497258 -62.46800731 355.24497258 -63.625 349 C-64.28666429 345.45036567 -64.99577344 342.0147264 -65.9921875 338.54296875 C-67.4083134 333.56457267 -68.27820419 328.51188497 -69.21875 323.42578125 C-69.87738673 320.53765918 -70.67223342 318.58331155 -72 316 C-72.30859375 313.8515625 -72.30859375 313.8515625 -72.4375 311.625 C-72.81650824 307.46267737 -74.09371086 304.73632671 -76 301 C-76.33605991 299.52819335 -76.62686772 298.04574825 -76.88671875 296.55859375 C-78.02428462 290.593547 -79.66098085 284.82175469 -81.375 279 C-81.66632813 277.98421875 -81.95765625 276.9684375 -82.2578125 275.921875 C-83.9350361 270.18400478 -85.85607794 264.65473407 -88.13867188 259.13037109 C-89.11021018 256.727411 -89.87852072 254.31182051 -90.5625 251.8125 C-91.74541318 247.71046234 -93.30862741 243.9239844 -95 240 C-95.65866966 238.04594667 -96.30327794 236.08712449 -96.9375 234.125 C-98.3640771 229.75880949 -100.00112205 225.64096666 -101.93359375 221.48046875 C-103.27983635 218.34909859 -104.38125076 215.15689766 -105.5 211.9375 C-107.75888496 205.50037076 -110.51850174 199.75135392 -113.75 193.75 C-115 191 -115 191 -115 187 C-113.7421875 185.60546875 -113.7421875 185.60546875 -111.875 184.1875 C-101.36505269 175.50699289 -92.40597174 164.67141093 -84 154 C-83.1202634 152.900664 -82.24002959 151.80172576 -81.359375 150.703125 C-61.09163602 125.3051703 -44.847252 97.7973659 -30.06640625 68.921875 C-28.36495193 65.6007125 -26.64144806 62.31977346 -24.74609375 59.10546875 C-22.99025026 55.98265986 -21.71909921 52.92737856 -20.5 49.5625 C-19.1703517 45.99791094 -17.85890479 42.5417828 -16.0625 39.1875 C-13.65450434 34.60643509 -11.9632209 29.75074239 -10.19360352 24.8972168 C-8.59826388 20.53020838 -6.86633279 16.25878312 -5 12 C-4.34 12 -3.68 12 -3 12 C-2.86722656 11.38511719 -2.73445313 10.77023438 -2.59765625 10.13671875 C-2.33275391 8.92435547 -2.33275391 8.92435547 -2.0625 7.6875 C-1.88847656 6.88699219 -1.71445312 6.08648437 -1.53515625 5.26171875 C-1 3 -1 3 0 0 Z " fill="#020202" transform="translate(286,66)"/>
<path d="M0 0 C1.60218495 -0.00841976 3.20436 -0.01894779 4.80651855 -0.03141785 C9.14558932 -0.05842469 13.4840841 -0.05377579 17.82320166 -0.04171729 C21.45132181 -0.03457414 25.07933624 -0.04309347 28.70744812 -0.05162269 C37.27023193 -0.07156243 45.83273647 -0.06602085 54.39550781 -0.04394531 C63.21565607 -0.02159192 72.03507201 -0.03917026 80.85515106 -0.0769946 C88.44014003 -0.10827424 96.02490286 -0.11613045 103.60994828 -0.10504085 C108.13469333 -0.09856687 112.65901616 -0.10049278 117.18371201 -0.12436485 C121.44074068 -0.14568178 125.69674036 -0.13755586 129.95370483 -0.10727119 C131.5108786 -0.1009656 133.068133 -0.10475185 134.62524796 -0.11968231 C142.62379233 -0.19012644 149.07873451 0.00205044 155.69067574 4.98645306 C158.95589439 8.40162629 159.54623447 11.3630844 159.58398438 15.99462891 C159.59674408 17.05930893 159.60950378 18.12398895 159.62265015 19.22093201 C159.62487579 20.36578568 159.62710144 21.51063934 159.62939453 22.69018555 C159.63937973 24.46178795 159.63937973 24.46178795 159.64956665 26.2691803 C159.65969013 28.76651451 159.66438377 31.26387576 159.6640625 33.76123047 C159.6684365 37.58240266 159.70476398 41.40242077 159.74267578 45.22338867 C159.74854376 47.64981701 159.75251328 50.07625084 159.75439453 52.50268555 C159.76876556 53.64551498 159.7831366 54.78834442 159.79794312 55.96580505 C159.75232946 63.88156616 159.75232946 63.88156616 157.45214844 67.79785156 C153.24274725 71.43454186 150.97208815 71.91657192 145.47451782 71.93699646 C144.77719492 71.94223314 144.07987202 71.94746982 143.36141813 71.95286518 C141.0192081 71.96789567 138.67721593 71.96857099 136.33496094 71.96923828 C134.65791961 71.97685771 132.98088179 71.98528484 131.30384827 71.99446106 C126.74391156 72.01643395 122.18404192 72.02520867 117.62405825 72.0302875 C114.77616229 72.0339277 111.92828399 72.04016598 109.08039474 72.04728889 C99.1478269 72.07179281 89.21531136 72.08483738 79.28271484 72.08837891 C70.01962447 72.09201522 60.75686523 72.12191499 51.4938761 72.16378349 C43.54474709 72.19845566 35.59572797 72.21392681 27.64652383 72.21462494 C22.89718227 72.21541879 18.14817788 72.22420678 13.39891434 72.2526226 C8.93200473 72.27875082 4.46571311 72.28103807 -0.00123787 72.26496696 C-1.64073722 72.26314829 -3.28027168 72.26988097 -4.9196949 72.28578568 C-7.15841018 72.30618034 -9.3949497 72.2957369 -11.63363647 72.27757263 C-12.88614386 72.27958396 -14.13865124 72.28159529 -15.42911339 72.28366756 C-19.59695354 71.49417614 -21.01255717 69.85495761 -23.70654297 66.6628418 C-24.36654297 66.0028418 -25.02654297 65.3428418 -25.70654297 64.6628418 C-25.96723938 62.49531555 -25.96723938 62.49531555 -25.98120117 59.7734375 C-25.99073318 58.7551033 -26.0002652 57.7367691 -26.01008606 56.68757629 C-26.00917465 55.58242172 -26.00826324 54.47726715 -26.00732422 53.33862305 C-26.01160934 52.20386032 -26.01589447 51.0690976 -26.02030945 49.89994812 C-26.02606264 47.49320137 -26.02654577 45.08643723 -26.0222168 42.6796875 C-26.01907074 39.00775107 -26.0424562 35.33663083 -26.06787109 31.66479492 C-26.07014545 29.32690531 -26.07084695 26.98901354 -26.06982422 24.65112305 C-26.07903397 23.55608963 -26.08824371 22.46105621 -26.09773254 21.33283997 C-26.05165654 13.68336701 -25.68063559 8.65047296 -20.06852722 3.01281738 C-14.20753585 -0.98227508 -6.80741149 -0.04117875 0 0 Z " fill="#010101" transform="translate(230.70654296875,449.337158203125)"/>
<path d="M0 0 C-1.44077046 3.36179774 -3.24750021 5.59156268 -6 8 C-6.66 8 -7.32 8 -8 8 C-6.48291727 4.46014029 -4.24676932 0 0 0 Z " fill="#C8C8C8" transform="translate(281,250)"/>
</svg>
