<?xml version="1.0" encoding="UTF-8"?>
<svg version="1.1" xmlns="http://www.w3.org/2000/svg" width="894" height="864">
<path d="M0 0 C295.02 0 590.04 0 894 0 C894 285.12 894 570.24 894 864 C598.98 864 303.96 864 0 864 C0 578.88 0 293.76 0 0 Z " fill="#FDFDFE" transform="translate(0,0)"/>
<path d="M0 0 C1.38017223 -0.00307895 1.38017223 -0.00307895 2.78822672 -0.0062201 C5.88221723 -0.01189031 8.97616322 -0.01043282 12.070158 -0.00901413 C14.30655114 -0.01159775 16.54294382 -0.0146109 18.77933586 -0.01801753 C24.93366928 -0.02609111 31.08799103 -0.0278773 37.24232912 -0.028615 C43.1953835 -0.030275 49.14843251 -0.03659262 55.10148359 -0.04269341 C71.04958798 -0.05874735 86.9976914 -0.06465596 102.94580241 -0.06944216 C110.49135984 -0.07177867 118.03691651 -0.07538138 125.58247335 -0.07913754 C151.4154041 -0.09197239 177.24833444 -0.10269172 203.08126831 -0.10614014 C204.70266572 -0.10636177 206.32406314 -0.10658355 207.94546055 -0.10680549 C209.57075615 -0.10702613 211.19605175 -0.10724661 212.82134736 -0.10746694 C216.08192706 -0.10790949 219.34250677 -0.1083566 222.60308647 -0.10880661 C223.41151963 -0.108916 224.21995278 -0.10902539 225.05288391 -0.1091381 C251.26540354 -0.1127686 277.4778955 -0.12868873 303.69040453 -0.15199697 C331.40862653 -0.17659901 359.12683272 -0.19031314 386.84506595 -0.19150805 C389.88846898 -0.19167951 392.93187201 -0.19189493 395.97527504 -0.19214249 C396.72463767 -0.19219826 397.47400031 -0.19225402 398.2460709 -0.19231148 C410.29960026 -0.19346159 422.35310121 -0.20448011 434.40662098 -0.21902954 C446.52451066 -0.23340363 458.64236396 -0.23662637 470.76025982 -0.22858956 C477.32368054 -0.22452908 483.88702477 -0.22562519 490.45043564 -0.23964691 C496.46105367 -0.25237026 502.4715043 -0.25120188 508.48212205 -0.2390562 C510.65441799 -0.23709651 512.82672573 -0.24019014 514.99900509 -0.24890056 C534.45803609 -0.32197594 549.83266717 1.7694346 564.52984428 15.72127151 C573.86850881 25.57076897 579.9184122 37.72971427 579.95544243 51.41572952 C579.96400764 53.31628601 579.96400764 53.31628601 579.9727459 55.25523758 C579.97399113 56.65211858 579.97511625 58.0489997 579.97613335 59.44588089 C579.98076492 60.92304482 579.98579004 62.40020756 579.99117851 63.87736893 C580.00427657 67.88608189 580.01074304 71.89477813 580.01518917 75.90350914 C580.01812564 78.41276777 580.02223164 80.92202188 580.02669334 83.43127823 C580.04036487 91.29563071 580.05003176 99.1599728 580.05389524 107.02433634 C580.05836756 116.07660319 580.07587843 125.12871842 580.10489583 134.1809392 C580.12658748 141.19350249 580.13660358 148.20602337 580.13793635 155.21861982 C580.13897955 159.39913363 580.14478242 163.57950484 580.16275597 167.75998306 C580.17936535 171.69988884 580.18133056 175.63954686 580.17261696 179.5794754 C580.17185326 181.01565215 580.17609981 182.45184292 580.18607521 183.88798523 C580.30164312 201.58194562 576.68213512 216.85710779 564.15875053 229.88142776 C552.70479564 240.87722447 539.32605473 246.46891014 523.43075752 246.38590336 C522.51340014 246.38910984 521.59604275 246.39231631 520.65088665 246.39561996 C517.57826904 246.40391844 514.50584642 246.39799612 511.43322563 246.39212418 C509.20748 246.39514493 506.98173541 246.39903403 504.75599265 246.40371674 C498.6403671 246.41401539 492.52480006 246.41181014 486.40916967 246.40753615 C480.49069368 246.40532536 474.57223092 246.41247739 468.65376008 246.4192964 C455.05396289 246.43453479 441.45418433 246.4362416 427.8543804 246.43377338 C417.35123837 246.43194039 406.84810244 246.43370045 396.34496117 246.43799782 C394.8357223 246.43860022 393.32648344 246.43920142 391.81724457 246.43980142 C389.54292269 246.44070868 387.26860081 246.44161735 384.99427893 246.44253377 C363.84882709 246.45096325 342.70337755 246.45529908 321.55792427 246.45112705 C320.36225358 246.45089249 320.36225358 246.45089249 319.14242793 246.45065319 C315.10239348 246.44984741 311.06235903 246.44900164 307.02232459 246.44813988 C306.21997026 246.4479688 305.41761593 246.44779771 304.59094783 246.44762144 C302.96839204 246.44727478 301.34583626 246.44692625 299.72328047 246.44657585 C274.48007699 246.44121944 249.23690844 246.44914679 223.99371147 246.46760941 C195.62796829 246.48833155 167.26224675 246.49905164 138.89649558 246.49503392 C135.87109804 246.49463858 132.84570051 246.49427703 129.82030296 246.49393654 C129.07538278 246.49384581 128.3304626 246.49375508 127.56296908 246.49366159 C116.32364943 246.49249622 105.08435165 246.49913942 93.84503746 246.50974846 C81.05975058 246.52180452 68.27451183 246.52335481 55.48922423 246.51095829 C48.96629728 246.50491654 42.44344533 246.50398706 35.92052269 246.51596069 C29.94698847 246.52679838 23.97362712 246.52374109 18.00010106 246.50969901 C15.84132544 246.50704626 13.68253637 246.5094367 11.52377394 246.51743487 C-7.77654516 246.58396773 -24.20182552 244.46044526 -38.94647408 230.72322464 C-50.19207238 219.49444708 -54.54503892 205.51323358 -54.60269356 189.86922073 C-54.59845724 188.43587017 -54.59389956 187.00252053 -54.5890522 185.56917191 C-54.59476645 184.03038414 -54.60173476 182.49160061 -54.60984993 180.95282364 C-54.62767949 176.80397931 -54.62663242 172.65534766 -54.62090755 168.50647664 C-54.61780102 165.03006633 -54.62392428 161.55369602 -54.62994629 158.07729143 C-54.64395623 149.87012349 -54.64245958 141.66305973 -54.63104439 133.45589066 C-54.61956484 125.01645084 -54.63364411 116.57732888 -54.66044086 108.13793093 C-54.68265975 100.86537232 -54.6892214 93.59291304 -54.68336445 86.32032293 C-54.68000865 81.98844656 -54.68231772 77.65677389 -54.69961548 73.32492638 C-54.71518188 69.2494293 -54.71102287 65.17440007 -54.69231033 61.09892082 C-54.68865118 59.61233733 -54.69165393 58.1257184 -54.70219612 56.63916779 C-54.8081481 40.45002696 -50.22722075 27.02913948 -39.14984322 15.00642776 C-28.04114246 4.40567953 -15.08436247 -0.03132907 0 0 Z " fill="#FDFDFD" transform="translate(158.18499946594238,77.86857223510742)"/>
<path d="M0 0 C2.90807989 1.98803398 5.82221036 3.96712817 8.73576355 5.9471283 C10.31049247 7.01749352 11.8848984 8.08833409 13.45899963 9.15962219 C22.58497552 15.36945692 31.73675885 21.540963 40.88952637 27.71121216 C43.63852803 29.56464232 46.3869074 31.41899193 49.13516235 33.27352905 C56.57974908 38.29561122 64.02700874 43.31305763 71.50405884 48.28671265 C79.96704314 53.91639678 88.38620579 59.6108113 96.80899048 65.30038452 C110.1880395 74.336749 123.57504245 83.35990728 137.01968384 92.2984314 C148.72866508 100.08794352 160.4142817 107.91210036 172.0831604 115.76156616 C174.02443015 117.06677471 175.96647474 118.37083165 177.90933228 119.67367554 C180.63579616 121.50240707 183.35932738 123.33542816 186.08218384 125.16952515 C186.89646851 125.71451157 187.71075317 126.25949799 188.54971313 126.82099915 C200.22211812 134.70329997 200.22211812 134.70329997 202.01968384 138.2984314 C202.7212223 145.43073909 202.7212223 145.43073909 199.64468384 149.2359314 C195.83300831 152.23081931 193.88049944 152.80146929 189.01968384 152.2984314 C186.25679614 151.04478957 183.78990552 149.41689006 181.26968384 147.7359314 C180.61741821 147.31763062 179.96515259 146.89932983 179.29312134 146.46835327 C175.7012104 144.1447922 172.18814886 141.72110398 168.69546509 139.2515564 C163.88723497 135.86831084 159.00635306 132.60205664 154.10952759 129.34921265 C153.29277557 128.80655258 152.47602356 128.26389252 151.63452148 127.70478821 C148.22939437 125.44385339 144.82322913 123.18449611 141.41543579 120.92758179 C132.74307323 115.18148167 124.10534134 109.40855271 115.63687134 103.36483765 C104.76960093 95.61784 93.56513168 88.38274865 82.39346313 81.08554077 C71.46772499 73.94306884 60.63733184 66.70159994 49.96788025 59.18069458 C43.18187546 54.3976997 36.31930655 49.75347684 29.39468384 45.1734314 C26.84329198 43.48294524 24.29273985 41.79119509 21.74234009 40.09921265 C21.06843735 39.65248703 20.39453461 39.20576141 19.70021057 38.74549866 C14.77423785 35.47577445 9.86691175 32.17912542 4.96591187 28.87210083 C1.19218542 26.32652517 -2.58580649 23.78731711 -6.36404419 21.2484436 C-8.21593999 20.00173882 -10.06595626 18.75223702 -11.91397095 17.49978638 C-29.65293999 5.48220783 -43.63655874 -2.84043583 -65.70126343 1.39315796 C-67.98664962 1.89240188 -70.26843022 2.40837835 -72.54672241 2.9390564 C-74.42783722 3.35650116 -74.42783722 3.35650116 -76.34695435 3.78237915 C-79.71931417 4.53101738 -83.08703321 5.29875462 -86.45404434 6.07104492 C-89.98354635 6.87770868 -93.51660814 7.66846862 -97.04940796 8.46054077 C-101.39393893 9.43553679 -105.73804457 10.4122775 -110.08036804 11.39706421 C-119.64237291 13.5638624 -129.21828394 15.65037534 -138.80844116 17.6890564 C-142.47229528 18.47510831 -146.13579227 19.26279963 -149.7991333 20.05123901 C-152.1065092 20.54471646 -154.4150331 21.03285985 -156.72473145 21.51535034 C-171.99551559 24.71300756 -183.82737021 28.25683179 -195.85531616 38.5484314 C-197.23566367 39.69956688 -198.61718906 40.8492913 -199.99984741 41.99765015 C-200.67225464 42.55887573 -201.34466187 43.12010132 -202.03744507 43.69833374 C-204.82111098 45.99088795 -207.6734731 48.17627782 -210.54281616 50.3609314 C-215.24134576 53.94435879 -219.87580052 57.59510536 -224.48031616 61.2984314 C-229.65288307 65.4565623 -234.86777724 69.54941699 -240.13876343 73.58187866 C-245.86633535 77.96651814 -251.53131795 82.42951584 -257.19662476 86.89413452 C-259.60776058 88.7924172 -262.0226414 90.68590132 -264.43807983 92.57870483 C-265.6235295 93.50949517 -266.807317 94.44240673 -267.98934937 95.37753296 C-270.61462708 97.45387201 -273.24852726 99.49658208 -275.94125366 101.4859314 C-282.06684804 106.08461808 -286.17903906 109.96226685 -287.34750366 117.7437439 C-287.72886625 125.07936549 -285.66124905 130.31110617 -280.79281616 135.7359314 C-275.7284989 138.54944098 -270.55848472 138.8931285 -264.98031616 137.4234314 C-264.05968384 137.13701782 -264.05968384 137.13701782 -263.12045288 136.84481812 C-260.95305693 136.29147199 -259.01067426 136.14950226 -256.78109741 136.0406189 C-251.36983661 135.46607908 -247.67469472 133.21367715 -243.16781616 130.2984314 C-241.40113103 129.19778252 -239.63418906 128.09754582 -237.86703491 126.99765015 C-236.92134644 126.40129761 -235.97565796 125.80494507 -235.00131226 125.19052124 C-230.11634118 122.13099919 -225.177964 119.15968797 -220.24502563 116.17843628 C-217.27261481 114.38037087 -214.30420836 112.57572565 -211.33578491 110.77108765 C-210.73705566 110.4071994 -210.13832642 110.04331116 -209.52145386 109.668396 C-205.74867249 107.37497255 -201.97763446 105.07870282 -198.20751953 102.78089905 C-195.6779142 101.23947277 -193.1475191 99.69934577 -190.61703491 98.15936279 C-189.41920622 97.42989682 -188.22176503 96.69979411 -187.02474976 95.96899414 C-184.30337263 94.30757719 -181.57736404 92.65531537 -178.84042358 91.0196228 C-177.10744039 89.97672639 -175.38707255 88.91188295 -173.69247437 87.80770874 C-167.10348439 83.70569092 -160.10890787 82.64822806 -152.54281616 81.4234314 C-151.11926426 81.18175729 -149.69592921 80.93880289 -148.27279663 80.69467163 C-145.18829331 80.1683567 -142.10221607 79.65272062 -139.01498413 79.14266968 C-134.57011084 78.40396095 -130.13365555 77.62240941 -125.69789124 76.83102417 C-121.92801867 76.16003204 -118.1559398 75.50205739 -114.38336182 74.84646606 C-112.54761018 74.52562142 -110.71256553 74.20070205 -108.8782959 73.87149048 C-83.16551866 69.27779178 -83.16551866 69.27779178 -70.98031616 77.2984314 C-52.07935786 91.29914125 -42.87473839 114.12882207 -39.23031616 136.6812439 C-37.23197492 150.46012904 -36.07283522 165.43073668 -44.48812866 177.4312439 C-54.18097968 189.55999464 -65.02203362 193.85655064 -80.08187866 195.5874939 C-82.38086219 195.82923401 -84.68041495 196.06558388 -86.98031616 196.2984314 C-87.69199951 196.37170654 -88.40368286 196.44498169 -89.13693237 196.52047729 C-108.10444471 198.47303006 -127.09086854 200.18091708 -146.09954834 201.67776489 C-152.72783218 202.20146607 -159.35454121 202.743948 -165.98031616 203.2984314 C-166.65570435 203.35452576 -167.33109253 203.41062012 -168.02694702 203.46841431 C-172.41090378 203.83569648 -176.7895224 204.24428246 -181.16781616 204.6734314 C-182.2299231 204.76310181 -183.29203003 204.85277222 -184.38632202 204.94515991 C-193.27518173 205.87244875 -200.65273199 208.56138131 -206.91781616 215.1109314 C-211.44931101 220.81804991 -213.61900501 226.54622088 -213.32797241 233.87265015 C-212.21017633 241.67210369 -209.192096 249.24478 -202.98031616 254.2984314 C-195.39431888 258.90764494 -188.96342396 260.4164542 -180.17562866 260.91171265 C-179.26079208 260.96594894 -178.34595551 261.02018524 -177.40339661 261.07606506 C-174.30425068 261.25824527 -171.20479254 261.43446961 -168.10531616 261.6109314 C-165.89819554 261.74035245 -163.69108314 261.86991384 -161.48397827 261.99960327 C-147.76148333 262.79535427 -134.03629548 263.49996933 -120.30638123 264.15279198 C-117.66528363 264.27883459 -115.02426547 264.40642259 -112.38327026 264.53459167 C-111.51022121 264.5769416 -110.63717216 264.61929152 -109.73766708 264.66292477 C-107.97351636 264.74853325 -106.20936891 264.83420943 -104.44522476 264.91995335 C-99.21014035 265.17326358 -93.97467322 265.415072 -88.73868084 265.64881611 C-85.41946275 265.79945658 -82.10078065 265.9601412 -78.78215218 266.123209 C-77.23539049 266.19707465 -75.68842204 266.26675644 -74.14126396 266.33179283 C-60.37766457 266.91363919 -49.09114884 269.40290217 -36.73031616 275.4859314 C13.12973214 299.0805584 65.53592127 298.49350681 117.72280884 282.5796814 C128.65658289 279.61406031 138.03216473 281.66194231 148.46768188 285.29623413 C150.47156165 285.99091573 152.48503846 286.64901847 154.50210571 287.30429077 C155.79904196 287.7416373 157.09529419 288.18101866 158.39077759 288.62265015 C159.54505249 289.01541138 160.69932739 289.40817261 161.88858032 289.81283569 C165.40917292 291.48322992 167.48897195 293.35657313 170.01968384 296.2984314 C170.9795215 299.42996881 170.81594488 302.13057273 170.01968384 305.2984314 C166.7647944 309.28567096 165.65219055 310.12553492 160.51577759 310.66952515 C153.84633983 310.50313425 147.73196304 307.51796658 141.59585571 305.1421814 C129.48370468 300.64728108 120.66869844 302.84378437 108.45718384 306.1109314 C55.85672733 320.02887833 4.56709547 317.75986008 -45.09555054 294.40682983 C-53.11007429 290.6544231 -60.38540366 287.91347716 -69.29281616 287.6734314 C-77.58548189 287.3631352 -77.58548189 287.3631352 -80.98031616 286.2984314 C-80.93390991 286.97647827 -80.88750366 287.65452515 -80.83969116 288.3531189 C-80.4367608 298.74296601 -83.5254827 307.26156856 -90.55453491 315.0406189 C-97.25996132 321.59141283 -106.08411497 325.44941894 -115.48031616 325.8609314 C-125.36841291 325.32682982 -134.78003237 322.21565735 -141.98031616 315.2984314 C-144.48031616 312.4234314 -144.48031616 312.4234314 -145.98031616 310.2984314 C-148.53158689 311.27793712 -150.98623703 312.30147723 -153.41781616 313.55233765 C-161.21481818 317.53403837 -168.9751197 319.53555341 -177.71078491 317.7359314 C-187.1409143 314.46097173 -193.98104739 307.55961519 -198.76156616 298.9546814 C-201.54914856 292.87918129 -203.05964232 286.9708745 -202.98031616 280.2984314 C-203.55660767 280.69932983 -204.13289917 281.10022827 -204.72665405 281.51327515 C-206.48071975 282.73349476 -208.23478912 283.95370907 -209.98886108 285.17391968 C-212.05285238 286.60975405 -214.11681651 288.04562747 -216.18075562 289.48153687 C-221.42842645 293.13233199 -226.67644982 296.78261708 -231.92562866 300.4312439 C-240.95319623 306.70703577 -249.97608774 312.98918739 -258.98031616 319.2984314 C-267.03530428 324.94254471 -275.10256877 330.56877606 -283.18099976 336.17929077 C-288.15984594 339.63745053 -293.13243199 343.10400468 -298.09359741 346.5874939 C-303.7017394 350.52160415 -309.32762193 354.42858852 -314.98031616 358.2984314 C-315.64241089 358.75250366 -316.30450562 359.20657593 -316.98666382 359.67440796 C-335.40434368 372.15007811 -357.19188383 377.35064666 -379.26547241 373.6812439 C-393.35732834 370.80018134 -406.39799965 363.98134668 -416.98031616 354.2984314 C-418.00318726 353.41284546 -418.00318726 353.41284546 -419.04672241 352.5093689 C-433.59724242 339.12630744 -441.38339376 319.62592558 -442.23031616 300.1890564 C-442.95147412 275.63341447 -434.76246148 254.85436383 -417.98031616 236.7984314 C-412.27514911 231.29876779 -405.67672316 227.06660532 -399.09310913 222.70565796 C-395.69515897 220.44245196 -392.33962865 218.11841913 -388.98031616 215.7984314 C-387.64719672 214.8814537 -386.31386301 213.96478741 -384.98031616 213.0484314 C-384.32031616 212.5946814 -383.66031616 212.1409314 -382.98031616 211.6734314 C-380.98031616 210.2984314 -378.98031616 208.9234314 -376.98031616 207.5484314 C-376.32055786 207.09484253 -375.66079956 206.64125366 -374.98104858 206.17391968 C-373.64529283 205.25559779 -372.30951804 204.33730359 -370.97372437 203.41903687 C-367.67729872 201.15291983 -364.38118589 198.8863508 -361.08578491 196.6187439 C-353.08143362 191.11175021 -345.06752802 185.6189293 -337.04745483 180.13485718 C-331.38351918 176.26101197 -325.72693629 172.37663195 -320.07406616 168.48666382 C-311.72084924 162.74066947 -303.35001592 157.02037719 -294.98031616 151.2984314 C-295.37501099 150.79271606 -295.76970581 150.28700073 -296.17636108 149.76596069 C-299.29819573 145.6981734 -302.02732241 141.73351568 -304.29281616 137.1109314 C-304.78394897 136.12737671 -305.27508179 135.14382202 -305.78109741 134.13046265 C-309.56274183 125.19986915 -309.16435667 114.60197157 -306.04281616 105.5484314 C-300.41563122 92.67741168 -288.7651264 84.69168715 -277.98031616 76.2984314 C-277.41796265 75.86031128 -276.85560913 75.42219116 -276.2762146 74.97079468 C-273.12543469 72.52374719 -269.9563017 70.10110368 -266.78500366 67.68075562 C-256.89810325 60.1077537 -247.0954561 52.42739749 -237.38534546 44.62924194 C-232.10299128 40.38821967 -226.78374699 36.19602255 -221.44906616 32.02108765 C-219.10612551 30.18653339 -216.7740308 28.33930236 -214.44906616 26.48202515 C-210.98550302 23.71988258 -207.49476482 20.99549609 -203.98031616 18.2984314 C-203.16264771 17.66711304 -203.16264771 17.66711304 -202.32846069 17.02304077 C-200.72826748 15.80210633 -199.10437345 14.61243819 -197.48031616 13.4234314 C-196.56250366 12.74538452 -195.64469116 12.06733765 -194.69906616 11.3687439 C-185.18214037 5.48661224 -173.12720333 3.17705441 -162.35531616 0.88046265 C-160.97555462 0.57905432 -159.59597646 0.27680551 -158.21656799 -0.0262146 C-154.56066743 -0.82685599 -150.9024281 -1.61620653 -147.24337387 -2.40229416 C-143.42854778 -3.22284763 -139.61526766 -4.05052713 -135.80184937 -4.87759399 C-131.20404971 -5.87461421 -126.60612154 -6.87099617 -122.00724792 -7.86305237 C-113.01610967 -9.80547246 -104.04507832 -11.81940732 -95.08578491 -13.9046936 C-92.04964614 -14.6014981 -89.01302906 -15.29616773 -85.97616577 -15.98980713 C-84.14635959 -16.41283945 -82.31842168 -16.84406245 -80.49276733 -17.28466797 C-48.10832794 -25.08674228 -26.8737755 -18.37209552 0 0 Z " fill="#111111" transform="translate(630.9803161621094,411.7015686035156)"/>
<path d="M0 0 C1.38017223 -0.00307895 1.38017223 -0.00307895 2.78822672 -0.0062201 C5.88221723 -0.01189031 8.97616322 -0.01043282 12.070158 -0.00901413 C14.30655114 -0.01159775 16.54294382 -0.0146109 18.77933586 -0.01801753 C24.93366928 -0.02609111 31.08799103 -0.0278773 37.24232912 -0.028615 C43.1953835 -0.030275 49.14843251 -0.03659262 55.10148359 -0.04269341 C71.04958798 -0.05874735 86.9976914 -0.06465596 102.94580241 -0.06944216 C110.49135984 -0.07177867 118.03691651 -0.07538138 125.58247335 -0.07913754 C151.4154041 -0.09197239 177.24833444 -0.10269172 203.08126831 -0.10614014 C204.70266572 -0.10636177 206.32406314 -0.10658355 207.94546055 -0.10680549 C209.57075615 -0.10702613 211.19605175 -0.10724661 212.82134736 -0.10746694 C216.08192706 -0.10790949 219.34250677 -0.1083566 222.60308647 -0.10880661 C223.41151963 -0.108916 224.21995278 -0.10902539 225.05288391 -0.1091381 C251.26540354 -0.1127686 277.4778955 -0.12868873 303.69040453 -0.15199697 C331.40862653 -0.17659901 359.12683272 -0.19031314 386.84506595 -0.19150805 C389.88846898 -0.19167951 392.93187201 -0.19189493 395.97527504 -0.19214249 C396.72463767 -0.19219826 397.47400031 -0.19225402 398.2460709 -0.19231148 C410.29960026 -0.19346159 422.35310121 -0.20448011 434.40662098 -0.21902954 C446.52451066 -0.23340363 458.64236396 -0.23662637 470.76025982 -0.22858956 C477.32368054 -0.22452908 483.88702477 -0.22562519 490.45043564 -0.23964691 C496.46105367 -0.25237026 502.4715043 -0.25120188 508.48212205 -0.2390562 C510.65441799 -0.23709651 512.82672573 -0.24019014 514.99900509 -0.24890056 C534.45803609 -0.32197594 549.83266717 1.7694346 564.52984428 15.72127151 C573.86850881 25.57076897 579.9184122 37.72971427 579.95544243 51.41572952 C579.96400764 53.31628601 579.96400764 53.31628601 579.9727459 55.25523758 C579.97399113 56.65211858 579.97511625 58.0489997 579.97613335 59.44588089 C579.98076492 60.92304482 579.98579004 62.40020756 579.99117851 63.87736893 C580.00427657 67.88608189 580.01074304 71.89477813 580.01518917 75.90350914 C580.01812564 78.41276777 580.02223164 80.92202188 580.02669334 83.43127823 C580.04036487 91.29563071 580.05003176 99.1599728 580.05389524 107.02433634 C580.05836756 116.07660319 580.07587843 125.12871842 580.10489583 134.1809392 C580.12658748 141.19350249 580.13660358 148.20602337 580.13793635 155.21861982 C580.13897955 159.39913363 580.14478242 163.57950484 580.16275597 167.75998306 C580.17936535 171.69988884 580.18133056 175.63954686 580.17261696 179.5794754 C580.17185326 181.01565215 580.17609981 182.45184292 580.18607521 183.88798523 C580.30164312 201.58194562 576.68213512 216.85710779 564.15875053 229.88142776 C552.70479564 240.87722447 539.32605473 246.46891014 523.43075752 246.38590336 C522.51340014 246.38910984 521.59604275 246.39231631 520.65088665 246.39561996 C517.57826904 246.40391844 514.50584642 246.39799612 511.43322563 246.39212418 C509.20748 246.39514493 506.98173541 246.39903403 504.75599265 246.40371674 C498.6403671 246.41401539 492.52480006 246.41181014 486.40916967 246.40753615 C480.49069368 246.40532536 474.57223092 246.41247739 468.65376008 246.4192964 C455.05396289 246.43453479 441.45418433 246.4362416 427.8543804 246.43377338 C417.35123837 246.43194039 406.84810244 246.43370045 396.34496117 246.43799782 C394.8357223 246.43860022 393.32648344 246.43920142 391.81724457 246.43980142 C389.54292269 246.44070868 387.26860081 246.44161735 384.99427893 246.44253377 C363.84882709 246.45096325 342.70337755 246.45529908 321.55792427 246.45112705 C320.36225358 246.45089249 320.36225358 246.45089249 319.14242793 246.45065319 C315.10239348 246.44984741 311.06235903 246.44900164 307.02232459 246.44813988 C306.21997026 246.4479688 305.41761593 246.44779771 304.59094783 246.44762144 C302.96839204 246.44727478 301.34583626 246.44692625 299.72328047 246.44657585 C274.48007699 246.44121944 249.23690844 246.44914679 223.99371147 246.46760941 C195.62796829 246.48833155 167.26224675 246.49905164 138.89649558 246.49503392 C135.87109804 246.49463858 132.84570051 246.49427703 129.82030296 246.49393654 C129.07538278 246.49384581 128.3304626 246.49375508 127.56296908 246.49366159 C116.32364943 246.49249622 105.08435165 246.49913942 93.84503746 246.50974846 C81.05975058 246.52180452 68.27451183 246.52335481 55.48922423 246.51095829 C48.96629728 246.50491654 42.44344533 246.50398706 35.92052269 246.51596069 C29.94698847 246.52679838 23.97362712 246.52374109 18.00010106 246.50969901 C15.84132544 246.50704626 13.68253637 246.5094367 11.52377394 246.51743487 C-7.77654516 246.58396773 -24.20182552 244.46044526 -38.94647408 230.72322464 C-50.19207238 219.49444708 -54.54503892 205.51323358 -54.60269356 189.86922073 C-54.59845724 188.43587017 -54.59389956 187.00252053 -54.5890522 185.56917191 C-54.59476645 184.03038414 -54.60173476 182.49160061 -54.60984993 180.95282364 C-54.62767949 176.80397931 -54.62663242 172.65534766 -54.62090755 168.50647664 C-54.61780102 165.03006633 -54.62392428 161.55369602 -54.62994629 158.07729143 C-54.64395623 149.87012349 -54.64245958 141.66305973 -54.63104439 133.45589066 C-54.61956484 125.01645084 -54.63364411 116.57732888 -54.66044086 108.13793093 C-54.68265975 100.86537232 -54.6892214 93.59291304 -54.68336445 86.32032293 C-54.68000865 81.98844656 -54.68231772 77.65677389 -54.69961548 73.32492638 C-54.71518188 69.2494293 -54.71102287 65.17440007 -54.69231033 61.09892082 C-54.68865118 59.61233733 -54.69165393 58.1257184 -54.70219612 56.63916779 C-54.8081481 40.45002696 -50.22722075 27.02913948 -39.14984322 15.00642776 C-28.04114246 4.40567953 -15.08436247 -0.03132907 0 0 Z M-28.49749947 33.88142776 C-34.54601286 42.7902138 -34.62277366 52.32975579 -34.57318306 62.78572464 C-34.57725622 64.2389401 -34.58260225 65.69215246 -34.58911324 67.14535904 C-34.6027043 71.06481313 -34.59752245 74.98402838 -34.58797598 78.90348625 C-34.58033653 83.0214244 -34.58743682 87.13934323 -34.59213448 91.25728226 C-34.59757962 98.17028315 -34.59043312 105.08318763 -34.57611275 111.99617386 C-34.5597886 119.96809666 -34.56507799 127.93978922 -34.58159196 135.91170645 C-34.59524233 142.77826951 -34.59710919 149.64476359 -34.58927596 156.51133585 C-34.5846189 160.60279135 -34.58392004 164.69413891 -34.59388542 168.78558731 C-34.60260473 172.63365676 -34.5964435 176.48143176 -34.57920265 180.32946968 C-34.57526414 181.73464788 -34.57632621 183.13985123 -34.58299065 184.54501915 C-34.6397696 197.74171483 -32.86157284 207.17871866 -23.55609322 216.81892776 C-15.32363753 224.45925787 -6.14373716 226.28577749 4.72636509 226.26285553 C5.62904152 226.26490816 6.53171795 226.2669608 7.46174821 226.26907563 C10.5024201 226.27475374 13.5430468 226.27328738 16.58372307 226.27186966 C18.77943054 226.27445283 20.97513755 226.27746585 23.1708439 226.28087306 C29.2172822 226.28895195 35.26370864 226.29073313 41.3101517 226.29147053 C47.82633828 226.29331953 54.34251869 226.30086607 60.85870171 226.30760574 C75.85617294 226.3221733 90.85364291 226.32771635 105.85111995 226.33229769 C113.2622386 226.33463366 120.67335649 226.3382363 128.08447454 226.34199307 C153.45339777 226.35482826 178.82232058 226.36554765 204.19124699 226.36899567 C205.78371726 226.3692173 207.37618754 226.36943908 208.96865781 226.36966102 C210.56497315 226.36988166 212.16128849 226.37010214 213.75760382 226.37032247 C216.96008567 226.37076502 220.16256752 226.37121213 223.36504936 226.37166214 C224.1590785 226.37177153 224.95310763 226.37188092 225.77119825 226.37199363 C251.51936261 226.3756245 277.26749883 226.39154587 303.01565241 226.4148525 C330.23807054 226.43944856 357.46047259 226.45316839 384.68290216 226.45436358 C387.67123847 226.45453504 390.65957477 226.45475047 393.64791107 226.45499802 C394.38372355 226.45505379 395.11953602 226.45510955 395.87764584 226.45516701 C407.71869358 226.45631763 419.55971243 226.46734049 431.40075041 226.48188507 C443.30252768 226.49625147 455.20426791 226.49948624 467.10605147 226.49144509 C473.55378484 226.48753331 480.00142099 226.48849412 486.44914246 226.50250244 C492.35175547 226.51520932 498.25419789 226.51407199 504.15681056 226.50191173 C506.29208897 226.49994917 508.42737933 226.50305884 510.56264093 226.51175609 C513.46677737 226.52283609 516.37031043 226.51536835 519.27443027 226.50336456 C520.10184702 226.51095976 520.92926377 226.51855495 521.78175375 226.5263803 C532.11732423 226.43426477 541.33356066 223.20125768 548.94781303 216.15877151 C558.14770252 206.53453288 559.41448477 197.02589693 559.36431694 184.0498848 C559.37302791 182.55064766 559.38339976 181.05141941 559.39529228 179.55220413 C559.42191594 175.5065634 559.42324739 171.46129812 559.41816568 167.41558695 C559.41601554 164.02619843 559.42582021 160.63688423 559.43537652 157.24751174 C559.4575128 149.24505531 559.45847228 141.24278667 559.44634819 133.24031448 C559.43427201 125.01149028 559.45889331 116.78335031 559.50148833 108.5546428 C559.53682606 101.46467167 559.54870655 94.3749173 559.54221284 87.28486145 C559.5386035 83.06128737 559.54369342 78.83820148 559.57164192 74.61470795 C559.59696369 70.63998345 559.59275928 66.66631839 559.56682014 62.69160843 C559.56212482 61.24210995 559.56742701 59.79253496 559.58406639 58.34312439 C559.70627391 46.86032462 557.28196174 37.92029899 549.56500053 29.19392776 C542.18579137 22.45710511 533.79107817 19.98029902 524.04041004 19.99720669 C523.12822268 19.99485446 522.21603533 19.99250223 521.27620593 19.99007872 C518.19113885 19.98337254 515.10611373 19.98384743 512.02103996 19.98425674 C509.79818487 19.98095912 507.57533038 19.97723377 505.35247666 19.97311527 C499.22171009 19.9630755 493.09095331 19.9593753 486.96017969 19.95672596 C481.03419872 19.95322858 475.10822458 19.94508182 469.18224826 19.93718202 C453.3003865 19.91632699 437.41852287 19.90586591 421.5366506 19.89705241 C414.02435163 19.89284716 406.51205345 19.88762498 398.99975515 19.88236788 C373.28815756 19.86447621 347.57655974 19.84948012 321.86495686 19.84204769 C320.25042242 19.84157293 318.63588798 19.84109704 317.02135355 19.84062003 C316.22068233 19.84038365 315.42001112 19.84014728 314.59507714 19.83990374 C310.53842074 19.83870253 306.48176435 19.83748708 302.42510796 19.83626175 C301.62004915 19.8360216 300.81499035 19.83578145 299.98553582 19.83553402 C273.88448391 19.82764136 247.78347744 19.80421097 221.68244537 19.77170581 C194.09218536 19.73740871 166.50195195 19.71769663 138.91167027 19.71440345 C135.88286053 19.71398591 132.85405081 19.71350634 129.82524109 19.71298027 C129.07945356 19.71285708 128.33366603 19.71273389 127.56527888 19.71260696 C115.56231928 19.7102747 103.55941245 19.69461322 91.55647166 19.67413842 C79.49089375 19.65388336 67.42537922 19.64840159 55.35978746 19.65790906 C48.82294014 19.66266629 42.28623027 19.66050611 35.749403 19.64114761 C29.76525046 19.6235787 23.78139509 19.62446289 17.79723967 19.64004491 C15.63229001 19.64243051 13.46732011 19.63804836 11.30240148 19.62621626 C8.35806667 19.61112106 5.414788 19.62075384 2.47047901 19.63644314 C1.63126015 19.62622093 0.79204129 19.61599872 -0.07260844 19.60546675 C-11.43562139 19.73748767 -21.34502531 25.16489906 -28.49749947 33.88142776 Z " fill="#0F1010" transform="translate(158.18499946594238,77.86857223510742)"/>
<path d="M0 0 C8.11159868 5.64630889 16.42155769 14.3433887 18.48046875 24.27734375 C18.63322266 25.59605469 18.63322266 25.59605469 18.7890625 26.94140625 C18.00402344 27.47507812 17.21898437 28.00875 16.41015625 28.55859375 C5.34929594 36.40298303 -1.91742292 45.43216722 -5.2109375 58.94140625 C-6.98932491 72.29215218 -4.55468937 85.06026967 3.32421875 96.13671875 C4.72169563 97.85841027 6.1868173 99.4104776 7.7890625 100.94140625 C6.4185775 104.18774802 5.06956703 105.74984671 2.140625 107.68359375 C1.39329102 108.18479736 0.64595703 108.68600098 -0.12402344 109.20239258 C-0.93645508 109.73501709 -1.74888672 110.2676416 -2.5859375 110.81640625 C-4.32886639 111.98326835 -6.07103051 113.15127345 -7.8125 114.3203125 C-8.71000977 114.9198877 -9.60751953 115.51946289 -10.53222656 116.13720703 C-14.71425053 118.95393663 -18.83772274 121.85206306 -22.9609375 124.75390625 C-24.63651368 125.92997972 -26.31229868 127.10575573 -27.98828125 128.28125 C-29.26421143 129.17626221 -29.26421143 129.17626221 -30.56591797 130.08935547 C-35.21124162 133.34202532 -39.86731178 136.57922658 -44.5234375 139.81640625 C-45.4834668 140.48389893 -46.44349609 141.1513916 -47.43261719 141.83911133 C-49.38422327 143.19587857 -51.3358836 144.55256778 -53.28759766 145.90917969 C-57.14095316 148.58792791 -60.99345347 151.26790397 -64.84570312 153.94824219 C-66.7490305 155.27226781 -68.65267415 156.59583889 -70.55664062 157.91894531 C-75.51742648 161.36704801 -80.47209203 164.82350777 -85.41796875 168.29296875 C-86.44019531 169.00839844 -87.46242188 169.72382812 -88.515625 170.4609375 C-90.45372113 171.81760479 -92.39005942 173.1767885 -94.32421875 174.5390625 C-110.54092444 185.876614 -110.54092444 185.876614 -118.9609375 188.25390625 C-120.53101563 188.71216797 -120.53101563 188.71216797 -122.1328125 189.1796875 C-139.28902293 193.42519643 -155.35932629 189.81148449 -170.43212891 181.04296875 C-182.91502173 173.3126898 -190.75693867 160.72391122 -194.5546875 146.78125 C-194.77125 145.84410156 -194.9878125 144.90695312 -195.2109375 143.94140625 C-195.39914063 143.15507813 -195.58734375 142.36875 -195.78125 141.55859375 C-198.63059818 124.20347299 -194.12576709 108.28672368 -184.2109375 93.94140625 C-175.97948596 82.49867239 -162.75819497 75.1635996 -151.2578125 67.33544922 C-147.98683792 65.10772202 -144.7231571 62.86942818 -141.4609375 60.62890625 C-140.81447266 60.18522705 -140.16800781 59.74154785 -139.50195312 59.28442383 C-133.9636704 55.4758453 -128.46162462 51.616506 -122.9609375 47.75390625 C-116.74248709 43.38907732 -110.4967031 39.08810248 -104.15625 34.90234375 C-100.01975747 32.14833944 -95.93253724 29.32463355 -91.84155273 26.50366211 C-84.96621914 21.76542012 -78.06694663 17.06251803 -71.15942383 12.37133789 C-67.1832288 9.6675809 -63.21249757 6.96213921 -59.3046875 4.16015625 C-40.19434627 -9.52304582 -20.72520775 -12.82606526 0 0 Z " fill="#F4414F" transform="translate(404.2109375,576.05859375)"/>
<path d="M0 0 C13.69730342 12.83468698 19.96285517 33.81776266 21.26953125 52.01953125 C21.48226547 59.32648915 21.22066317 66.1866232 16.3125 71.95703125 C9.41640265 78.45219271 2.06338495 79.21127252 -7.04296875 79.98828125 C-7.98749405 80.07423553 -8.93201935 80.16018982 -9.90516663 80.24874878 C-12.89979102 80.51981372 -15.89514648 80.78152941 -18.890625 81.04296875 C-20.93039412 81.22594399 -22.97010843 81.40953134 -25.00976562 81.59375 C-29.99027909 82.04224193 -34.9714693 82.48235525 -39.953125 82.91796875 C-39.81341782 82.23887451 -39.67371063 81.55978027 -39.5297699 80.86010742 C-39.34777542 79.96525635 -39.16578094 79.07040527 -38.97827148 78.1484375 C-38.7973143 77.26309326 -38.61635712 76.37774902 -38.42991638 75.46557617 C-38.04380062 73.4024697 -37.77844435 71.31701211 -37.55078125 69.23046875 C-36.79861026 64.57469505 -35.9767871 60.58074072 -32.18164062 57.46240234 C-27.54489761 54.51903207 -22.56722722 52.29667916 -17.54980469 50.08691406 C-13.40661476 48.22177742 -9.40479499 46.10566875 -5.390625 43.98046875 C-4.67108643 43.6146167 -3.95154785 43.24876465 -3.21020508 42.87182617 C0.11846357 41.14424835 1.92778637 40.09660169 4.046875 36.91796875 C4.60733128 32.59444887 4.5254808 30.62092102 2.046875 26.98046875 C-1.7049046 24.40112028 -4.57532243 24.29291892 -8.953125 24.91796875 C-12.1056993 25.96714747 -14.9929455 27.41100005 -17.94140625 28.93359375 C-18.76642136 29.34583191 -19.59143646 29.75807007 -20.44145203 30.18280029 C-22.17389721 31.05285557 -23.90244535 31.9307099 -25.62719727 32.81591797 C-28.26594649 34.1681335 -30.9175756 35.49190274 -33.57226562 36.8125 C-35.25864338 37.66372049 -36.94421968 38.51653105 -38.62890625 39.37109375 C-39.81484123 39.96352875 -39.81484123 39.96352875 -41.0247345 40.56793213 C-46.60723945 43.45584498 -49.29564264 45.71171427 -51.3034668 51.76855469 C-51.76148768 53.31068244 -52.21085236 54.85540274 -52.65234375 56.40234375 C-52.86556274 57.12566895 -53.07878174 57.84899414 -53.29846191 58.59423828 C-54.08833217 61.28281073 -54.86362447 63.97564874 -55.640625 66.66796875 C-57.39375 72.69046875 -59.146875 78.71296875 -60.953125 84.91796875 C-77.123125 86.23796875 -93.293125 87.55796875 -109.953125 88.91796875 C-114.953125 78.91796875 -114.953125 78.91796875 -114.95703125 75.72314453 C-113.76439368 72.39060425 -112.42001541 69.22936999 -110.890625 66.03515625 C-110.58329941 65.38705994 -110.27597382 64.73896362 -109.95933533 64.07122803 C-108.96397291 61.97520477 -107.95863485 59.88414016 -106.953125 57.79296875 C-105.57630378 54.90382508 -104.20422626 52.01243688 -102.83203125 49.12109375 C-102.49410049 48.41091095 -102.15616974 47.70072815 -101.80799866 46.96902466 C-99.07016607 41.20295224 -96.46015994 35.38589519 -93.890625 29.54296875 C-86.25497931 12.3465776 -86.25497931 12.3465776 -79.953125 6.91796875 C-77.14868164 6.00830078 -77.14868164 6.00830078 -73.86328125 5.42578125 C-72.62102783 5.19834229 -71.37877441 4.97090332 -70.09887695 4.73657227 C-68.73790952 4.50468601 -67.376822 4.2735036 -66.015625 4.04296875 C-64.60814421 3.79386202 -63.20083905 3.54376112 -61.79370117 3.29272461 C-57.99326467 2.62057919 -54.1891244 1.9722063 -50.38354492 1.32989502 C-47.88955391 0.90719423 -45.39683353 0.47757571 -42.90429688 0.04638672 C-38.68149932 -0.68288001 -34.45679681 -1.39987557 -30.23019409 -2.10675049 C-28.59287131 -2.38097909 -26.95592295 -2.65745303 -25.31936646 -2.93621826 C-23.01771389 -3.32610783 -20.7143933 -3.70385299 -18.41015625 -4.078125 C-17.72814148 -4.19547501 -17.04612671 -4.31282501 -16.34344482 -4.43373108 C-9.35215104 -5.5408275 -5.42440754 -4.29262326 0 0 Z " fill="#FCFCFC" transform="translate(551.953125,508.08203125)"/>
<path d="M0 0 C0.97326467 -0.00583219 1.94652934 -0.01166439 2.94928688 -0.01767331 C4.54921937 -0.01200433 4.54921937 -0.01200433 6.18147373 -0.00622082 C7.31659116 -0.01004636 8.45170859 -0.01387191 9.62122351 -0.01781338 C13.43900672 -0.02816293 17.25664008 -0.02414748 21.07443333 -0.02018261 C23.80579662 -0.02343347 26.53715148 -0.02964578 29.26850986 -0.03567028 C35.9258721 -0.04842964 42.58319402 -0.05020944 49.24056643 -0.04787002 C54.65090235 -0.04608812 60.06122602 -0.04783375 65.47156048 -0.05209446 C66.24112533 -0.05268965 67.01069018 -0.05328484 67.80357518 -0.05389806 C69.36686639 -0.05510979 70.93015759 -0.05632393 72.4934488 -0.05754044 C87.15903887 -0.0684207 101.82460595 -0.06625116 116.49019731 -0.06015559 C129.91110308 -0.05498572 143.33193628 -0.06624287 156.7528277 -0.08525381 C170.52896653 -0.10461859 184.30507101 -0.11289062 198.08122355 -0.10913056 C205.81727013 -0.10721648 213.55325493 -0.10972617 221.28929043 -0.1238451 C227.8748578 -0.13574255 234.46032538 -0.13718224 241.04589408 -0.12505493 C244.40656537 -0.11915466 247.76690387 -0.11971708 251.12758732 -0.13005733 C254.76917432 -0.14045611 258.4102663 -0.132479 262.05183506 -0.11974621 C263.116226 -0.12712049 264.18061694 -0.13449478 265.27726215 -0.14209253 C271.596511 -0.09542665 275.25122388 0.5275479 279.99264622 4.94197559 C281.73958734 8.34391357 281.99189062 11.56871723 281.18014622 15.25447559 C278.74264622 18.19197559 278.74264622 18.19197559 276.18014622 20.25447559 C275.85014622 20.58447559 275.52014622 20.91447559 275.18014622 21.25447559 C273.68265702 21.3530675 272.18052123 21.38186789 270.6797905 21.38311005 C269.21225288 21.38794672 269.21225288 21.38794672 267.71506804 21.3928811 C266.62735289 21.39133249 265.53963774 21.38978389 264.41896152 21.38818836 C263.27345115 21.39045392 262.12794078 21.39271948 260.94771796 21.39505368 C257.75384682 21.40031191 254.5600108 21.40103466 251.36613667 21.39985931 C247.92705033 21.39965604 244.48797252 21.40516707 241.04889011 21.40991688 C234.30523351 21.41824047 227.56158565 21.4209725 220.81792434 21.42152926 C215.33790801 21.42200368 209.85789456 21.42405476 204.37787914 21.42722988 C188.85420299 21.43604173 173.33053377 21.44064852 157.8068551 21.43989941 C156.96912564 21.43985945 156.13139618 21.43981949 155.26828098 21.43977833 C154.42953298 21.43973745 153.59078497 21.43969657 152.72662035 21.43965445 C139.13350241 21.439248 125.54041217 21.44881578 111.94730224 21.46291669 C98.00289627 21.47726829 84.05850382 21.48418753 70.11409026 21.48332292 C62.28023346 21.48299049 54.44640568 21.48575753 46.6125555 21.49650097 C39.94199984 21.50559008 33.27148636 21.50779442 26.6009272 21.50099155 C23.19592214 21.49771804 19.79099807 21.49769938 16.38600063 21.5063448 C12.69802102 21.51401132 9.0102565 21.50945534 5.32228184 21.50171375 C4.24125885 21.50685732 3.16023587 21.51200088 2.04645461 21.51730031 C0.56718213 21.51040211 0.56718213 21.51040211 -0.94197464 21.50336456 C-1.79352499 21.50358193 -2.64507534 21.5037993 -3.52243024 21.50402325 C-6.06939547 21.22737021 -7.65132227 20.60181144 -9.81985378 19.25447559 C-12.14622784 16.34650802 -12.79280315 14.47088065 -13.25735378 10.75447559 C-12.74279452 6.63800151 -11.76710797 5.11986161 -8.81985378 2.25447559 C-5.7861034 0.40588404 -3.53110921 0.00364251 0 0 Z " fill="#141414" transform="translate(182.8198537826538,152.7455244064331)"/>
<path d="M0 0 C0.81489149 -0.00438225 1.62978299 -0.00876451 2.46936816 -0.01327956 C5.21539546 -0.02669452 7.96139066 -0.03285243 10.70744324 -0.03897095 C12.67004543 -0.04686972 14.63264617 -0.05513853 16.59524536 -0.06375122 C23.05344755 -0.08999493 29.51165631 -0.1052801 35.96989441 -0.11953735 C38.19053845 -0.12489586 40.41118245 -0.13027336 42.6318264 -0.13566971 C51.86649545 -0.15730089 61.10116273 -0.17603907 70.33585072 -0.1872921 C83.58436129 -0.20354077 96.83257901 -0.23673823 110.08097917 -0.29369295 C119.38887632 -0.33234783 128.69669499 -0.35191945 138.00467032 -0.35721266 C143.56779944 -0.36087191 149.13061637 -0.37295423 154.69365883 -0.4053154 C159.92629175 -0.43531799 165.15842231 -0.44173573 170.39112282 -0.42993164 C172.31282419 -0.42971026 174.23454835 -0.43806853 176.15616989 -0.45558548 C178.77798097 -0.47818639 181.3979564 -0.47002525 184.01977539 -0.45410156 C184.7820366 -0.46798365 185.54429782 -0.48186574 186.32965785 -0.49616849 C190.32255715 -0.43632636 192.01629542 0.00327702 195.14914989 2.56690025 C198.14700688 6.3478117 198.57880971 8.32870658 198.20036316 13.15390015 C196.53273994 16.64796784 195.46030294 17.98060696 192.20036316 20.15390015 C189.52597493 20.35168858 186.95542059 20.43214086 184.2804718 20.42132568 C183.05685293 20.42812235 183.05685293 20.42812235 181.80851448 20.43505633 C179.06553853 20.44775191 176.32275983 20.44607665 173.57975769 20.44442749 C171.61700687 20.45040952 169.65425841 20.45721431 167.69151306 20.46478271 C162.35266975 20.48248302 157.01389051 20.48713979 151.67502069 20.48841429 C147.22162631 20.49031108 142.76824694 20.49766608 138.31485832 20.50475848 C127.80972593 20.52105536 117.30462783 20.52592624 106.79948425 20.52450562 C95.95503926 20.52330384 85.11079319 20.54440997 74.26639855 20.57599294 C64.96271804 20.60212538 55.65910261 20.61287419 46.35538566 20.6115948 C40.79568679 20.61108427 35.23616462 20.61681745 29.67650223 20.6379509 C24.44799348 20.6572822 19.21983091 20.65749275 13.99131012 20.64291763 C12.07123434 20.64082208 10.15113719 20.64557465 8.23109818 20.65763855 C5.61172968 20.6730317 2.99356364 20.66382266 0.3742218 20.64837646 C-0.38735729 20.65866359 -1.14893638 20.66895072 -1.93359363 20.67954957 C-6.83549584 20.61557866 -9.36527466 19.65934119 -12.79963684 16.15390015 C-14.40050311 12.95216761 -14.29880773 9.62812956 -13.79963684 6.15390015 C-9.91673092 0.07068086 -6.78183017 0.00439 0 0 Z " fill="#101010" transform="translate(184.7996368408203,215.84609985351563)"/>
<path d="M0 0 C4.52630851 0.94298094 6.72578083 3.80641358 9.33837891 7.53515625 C10.69895906 9.64929614 12.0139277 11.78475571 13.3125 13.9375 C13.9940918 15.04834961 13.9940918 15.04834961 14.68945312 16.18164062 C15.79920404 17.99228686 16.90047981 19.80812295 18 21.625 C21.16551782 21.01061795 23.24828121 19.95393429 25.86328125 18.0859375 C26.58580078 17.58835937 27.30832031 17.09078125 28.05273438 16.578125 C29.55507354 15.52895469 31.04998405 14.46906328 32.53710938 13.3984375 C36.31549617 10.8236362 38.20012966 9.61856888 42.88671875 9.65625 C46 10.625 46 10.625 48.5 12.75 C50 15.625 50 15.625 50.3125 19 C47.22852396 27.51764812 36.38303185 32.08478041 29 36.625 C31.61269439 41.60958745 34.37163412 46.16306417 37.8125 50.625 C40.70954066 54.6948033 42.00503034 57.67966447 41.55078125 62.703125 C41 64.625 41 64.625 38.9375 67.25 C36 68.625 36 68.625 32.6875 69.0625 C26.7671488 66.75456648 24.34450547 61.83432063 21 56.625 C19.83437851 54.89512861 18.66782666 53.16588345 17.5 51.4375 C16.6642219 50.16827316 15.82987074 48.89809715 15 47.625 C9.86629484 49.39122748 5.65378865 52.41953391 1.25976562 55.5234375 C-2.65667216 58.16007758 -5.2836032 59.25744123 -10 58.625 C-12.875 57.125 -12.875 57.125 -15 54.625 C-16.11079289 49.78511668 -16.11079289 49.78511668 -15 46.625 C-12.38611393 43.70543274 -9.29043337 41.72147612 -6 39.625 C-4.99453125 38.96757813 -3.9890625 38.31015625 -2.953125 37.6328125 C-0.31923386 35.93374801 2.33017076 34.26682022 5 32.625 C3.95966892 30.97832211 2.91764553 29.33271339 1.875 27.6875 C1.24207031 26.68332031 0.60914063 25.67914062 -0.04296875 24.64453125 C-1.25176665 22.77945984 -2.49775134 20.93721778 -3.80078125 19.13671875 C-6.36004376 15.60017223 -7.88986009 13.22576313 -8.6875 8.875 C-7.59315052 3.70171154 -5.21815622 1.08711588 0 0 Z " fill="#FEFBFB" transform="translate(301,639.375)"/>
<path d="M0 0 C2.3087694 0.42432862 4.61605274 0.85681294 6.921875 1.296875 C8.09234375 1.50183594 9.2628125 1.70679688 10.46875 1.91796875 C11.5928125 2.13066406 12.716875 2.34335937 13.875 2.5625 C15.40108887 2.84528809 15.40108887 2.84528809 16.95800781 3.13378906 C20.16214809 4.21182834 21.6136772 5.38152851 23.671875 8.046875 C24.4189098 15.61531851 22.88336802 22.93009567 21.484375 30.359375 C21.28779297 31.52533203 21.09121094 32.69128906 20.88867188 33.89257812 C20.57446289 35.5719043 20.57446289 35.5719043 20.25390625 37.28515625 C20.07061768 38.29618408 19.8873291 39.30721191 19.69848633 40.34887695 C18.38688064 43.79585779 16.73668222 45.06369644 13.671875 47.046875 C9.68185639 47.79500349 8.20706696 47.39591324 4.796875 45.171875 C1.79985892 40.76449841 2.30079583 37.19624973 2.671875 32.046875 C-4.06010071 36.98867731 -9.94714683 42.44352191 -15.765625 48.421875 C-17.34545004 50.03601643 -18.92737378 51.64810733 -20.51171875 53.2578125 C-21.19806396 53.96212402 -21.88440918 54.66643555 -22.59155273 55.39208984 C-24.87406023 57.56709839 -25.97858907 58.00803767 -29.140625 58.359375 C-33.10511267 57.97069974 -34.53971332 56.83528668 -37.328125 54.046875 C-39.21941049 51.55381686 -39.32645024 50.07478768 -39.515625 46.921875 C-37.43209803 35.36326109 -20.63954974 25.42098059 -11.8671875 18.76953125 C-9.328125 17.046875 -9.328125 17.046875 -7.328125 17.046875 C-7.328125 16.386875 -7.328125 15.726875 -7.328125 15.046875 C-8.9059375 15.2015625 -8.9059375 15.2015625 -10.515625 15.359375 C-14.328125 15.046875 -14.328125 15.046875 -17.265625 12.921875 C-19.328125 10.046875 -19.328125 10.046875 -19.953125 7.046875 C-17.7499345 -3.52843939 -8.20730755 -1.34162573 0 0 Z " fill="#101110" transform="translate(219.328125,357.953125)"/>
<path d="M0 0 C2.69990662 1.79993774 4.5418865 3.083773 6 6 C6.48091656 11.10546928 5.23626913 14.26342718 2.9296875 18.7890625 C2.45162155 19.72762589 2.45162155 19.72762589 1.96389771 20.68515015 C1.28902853 22.00094484 0.60790209 23.31354695 -0.07910156 24.62304688 C-1.12047205 26.61633306 -2.1313528 28.62312136 -3.140625 30.6328125 C-3.80289584 31.91498952 -4.46690255 33.19627171 -5.1328125 34.4765625 C-6.02830811 36.210271 -6.02830811 36.210271 -6.94189453 37.97900391 C-9.27147419 41.39848418 -11.36393835 43.06033093 -15 45 C-18.96385306 45 -21.13815964 44.61236025 -24.375 42.3125 C-26.44991559 39.3597355 -26.79788638 37.61699159 -27 34 C-26.19312282 31.17071459 -24.94467642 28.62317152 -23.625 26 C-23.2650293 25.26249512 -22.90505859 24.52499023 -22.53417969 23.76513672 C-20.01881697 18.73116705 -17.26300472 13.87690993 -14.25 9.125 C-13.70400146 8.26068359 -13.70400146 8.26068359 -13.14697266 7.37890625 C-9.5712835 1.95575047 -6.72915592 -0.96130799 0 0 Z " fill="#111211" transform="translate(171,426)"/>
<path d="M0 0 C2.9375 1.9375 2.9375 1.9375 5 5 C6.09476431 10.69049365 4.6289307 16.43765175 3.50390625 22.0234375 C2.77178956 26.34803376 2.55883748 30.67765738 2.34375 35.0546875 C1.8337859 39.42415262 0.82456068 42.15253486 -2.25 45.3125 C-5.57260565 47.35137165 -7.1663497 47.63894172 -11 47 C-13.69990662 45.20006226 -15.5418865 43.916227 -17 41 C-17.42358429 34.32854746 -16.69471051 28.01832642 -15.6875 21.4375 C-15.56987305 20.64674072 -15.45224609 19.85598145 -15.33105469 19.04125977 C-13.14193458 5.5244229 -13.14193458 5.5244229 -9.25 0.9375 C-5.90541149 -0.45607855 -3.58587629 -0.50328088 0 0 Z " fill="#111111" transform="translate(145,487)"/>
<path d="M0 0 C5.40489035 4.07229104 6.34594402 8.57752417 7.6875 14.875 C8.08632559 16.62260467 8.48604901 18.37000471 8.88671875 20.1171875 C9.07202148 20.9517749 9.25732422 21.7863623 9.44824219 22.64624023 C9.93879193 24.73889073 10.50139132 26.78257581 11.12109375 28.83984375 C12.27813656 33.00005546 12.653549 36.72297682 12 41 C9.87458538 44.40066339 8.4307695 44.88251741 4.5625 45.9375 C0.49053448 46.00893799 -0.78696403 45.39412907 -4 43 C-9.23760462 33.99734414 -14.36142886 15.39857272 -12 5 C-8.73184225 0.04824583 -5.81719541 -1.03878489 0 0 Z " fill="#111211" transform="translate(142,552)"/>
<path d="M0 0 C3.74893774 2.58588147 6.23262823 5.39912203 8.8125 9.125 C11.53970271 13.02100388 14.39193977 16.65235152 17.5 20.25 C19.98919984 23.35290789 20.95378854 24.78671635 21.8125 28.75 C20.73145734 33.07417066 19.39590639 35.09932996 16 38 C12.03391716 38.76762894 9.7241538 39.09231646 6.2878418 36.9152832 C1.64126051 32.89942225 -1.85372485 28.49535127 -5.3125 23.4375 C-5.83650391 22.69564453 -6.36050781 21.95378906 -6.90039062 21.18945312 C-13.04795648 12.3498674 -13.04795648 12.3498674 -12.9375 6.9375 C-10.87647352 0.47961702 -6.36228545 -0.90889792 0 0 Z " fill="#101111" transform="translate(165,612)"/>
<path d="M0 0 C11.55 0.66 23.1 1.32 35 2 C35 13.96875 35 13.96875 32 18 C28.42562642 21.09779044 24.78666553 23.28511842 20 23.625 C14.21970004 23.18297706 9.9817453 20.26673079 6.234375 15.98046875 C2.2410957 10.4460938 1.61698588 7.27643648 0 0 Z " fill="#FBFBFB" transform="translate(495,695)"/>
<path d="M0 0 C9.41213252 -0.12873737 18.62087413 0.20177652 28 1 C27.63867399 6.90165821 26.00559722 10.61236605 22 15 C17.95590048 17.69606634 14.74746558 17.6530905 10 17 C5.1029151 14.38822138 2.91649739 10.04489754 1 5 C0.63278472 3.3404694 0.291224 1.67453799 0 0 Z " fill="#FAFAFA" transform="translate(447,693)"/>
<path d="M0 0 C-1.79486204 6.04476527 -4.49322293 11.66175847 -7.125 17.375 C-7.59292969 18.39722656 -8.06085938 19.41945313 -8.54296875 20.47265625 C-9.69258292 22.98303821 -10.84500064 25.49209231 -12 28 C-15.46382193 26.66916128 -18.15340158 25.31339835 -21.0625 23 C-23.61498661 20.97822843 -26.04154732 19.37050815 -29 18 C-29 17.34 -29 16.68 -29 16 C-26.84448242 14.51953125 -26.84448242 14.51953125 -23.85546875 12.8125 C-22.78619141 12.19632813 -21.71691406 11.58015625 -20.61523438 10.9453125 C-19.48408203 10.30335938 -18.35292969 9.66140625 -17.1875 9 C-14.97229516 7.72979619 -12.75743573 6.45898975 -10.54296875 5.1875 C-9.0583313 4.34251953 -9.0583313 4.34251953 -7.54370117 3.48046875 C-1.56365435 0 -1.56365435 0 0 0 Z " fill="#F8F8F8" transform="translate(436,539)"/>
<path d="M0 0 C2.19749944 2.72793034 2.94007896 4.52063166 3.375 8 C2.95541352 11.35669186 1.93515649 13.25852831 0 16 C-1.23507304 12.29478089 -0.58487844 9.9211049 0.13671875 6.15625 C0.23536815 3.86439899 0.23536815 3.86439899 -1.66967773 2.3972168 C-4.44767171 0.73158458 -6.19958552 0.57778929 -9.421875 0.48828125 C-10.44667969 0.45283203 -11.47148437 0.41738281 -12.52734375 0.38085938 C-13.59082031 0.35830078 -14.65429688 0.33574219 -15.75 0.3125 C-17.36841797 0.26125977 -17.36841797 0.26125977 -19.01953125 0.20898438 C-21.67958377 0.12659337 -24.33931035 0.05741355 -27 0 C-27 -0.33 -27 -0.66 -27 -1 C-23.43842366 -1.22677207 -19.87584575 -1.42815479 -16.3125 -1.625 C-15.30509766 -1.68945312 -14.29769531 -1.75390625 -13.25976562 -1.8203125 C-12.28330078 -1.871875 -11.30683594 -1.9234375 -10.30078125 -1.9765625 C-9.40528564 -2.02893066 -8.50979004 -2.08129883 -7.5871582 -2.13525391 C-4.6444269 -1.98141101 -2.62812502 -1.31532779 0 0 Z " fill="#1B1A1A" transform="translate(380,218)"/>
<path d="M0 0 C6.77042289 -0.09162978 13.3205035 -0.16165156 20 1 C20.99 1 21.98 1 23 1 C23 1.99 23 2.98 23 4 C19.93722733 3.85873374 16.87486458 3.71215604 13.8125 3.5625 C12.94818359 3.52318359 12.08386719 3.48386719 11.19335938 3.44335938 C7.04085878 3.23652984 3.05462138 2.99896469 -1 2 C-0.67 1.34 -0.34 0.68 0 0 Z " fill="#191919" transform="translate(550,696)"/>
<path d="M0 0 C0.33 0.66 0.66 1.32 1 2 C0 4 -1 6 -2 8 C-2.34022786 9.99883869 -2.67329097 11.99890722 -3 14 C-3.495 15.093125 -3.99 16.18625 -4.5 17.3125 C-6.23978868 21.58948051 -6.69951512 25.43055755 -7 30 C-7.33 30 -7.66 30 -8 30 C-8.79162125 18.82934463 -5.99005122 9.41293763 0 0 Z " fill="#F34A5B" transform="translate(217,675)"/>
<path d="M0 0 C-0.98828125 1.45703125 -0.98828125 1.45703125 -3 3 C-5.79251583 3.37674518 -8.38779201 3.60191941 -11.1875 3.6875 C-11.93708984 3.72166016 -12.68667969 3.75582031 -13.45898438 3.79101562 C-15.30546838 3.87334294 -17.15270994 3.93835281 -19 4 C-18.67 3.01 -18.34 2.02 -18 1 C-12.03325384 -0.32594359 -6.07416385 -0.0884587 0 0 Z " fill="#1B1B1B" transform="translate(536,606)"/>
<path d="M0 0 C5.77807024 -0.2358396 10.51324804 0.13216954 16 2 C16.33 3.65 16.66 5.3 17 7 C15.02 7.99 15.02 7.99 13 9 C13.33 7.02 13.66 5.04 14 3 C9.38 3 4.76 3 0 3 C0 2.01 0 1.02 0 0 Z " fill="#212121" transform="translate(461,691)"/>
<path d="M0 0 C2 2 2 2 2.1875 5.0625 C2 8 2 8 1 9 C0.92851801 10.35243917 0.91600546 11.70834367 0.9375 13.0625 C0.958125 14.361875 0.97875 15.66125 1 17 C0.01 16.67 -0.98 16.34 -2 16 C-1.85936865 13.70800823 -1.71234057 11.41640814 -1.5625 9.125 C-1.48128906 7.84882812 -1.40007812 6.57265625 -1.31640625 5.2578125 C-1 2 -1 2 0 0 Z " fill="#191919" transform="translate(130,507)"/>
<path d="M0 0 C1.95216435 1.95216435 2.84826645 3.53199953 4 6 C4.598125 5.773125 5.19625 5.54625 5.8125 5.3125 C6.8953125 5.1578125 6.8953125 5.1578125 8 5 C9.75 6.4375 9.75 6.4375 11 8 C7.47078888 8.90282145 5.59289113 9.25033181 2.1875 7.8125 C0 6 0 6 -0.875 3.9375 C-1 2 -1 2 0 0 Z " fill="#181818" transform="translate(138,589)"/>
<path d="M0 0 C7.26 0 14.52 0 22 0 C22 0.33 22 0.66 22 1 C21.00097656 1.06058594 20.00195312 1.12117187 18.97265625 1.18359375 C17.68230469 1.26738281 16.39195312 1.35117187 15.0625 1.4375 C13.77472656 1.51871094 12.48695313 1.59992187 11.16015625 1.68359375 C8.13976043 1.64919188 8.13976043 1.64919188 7 3 C4.66702567 3.04092937 2.33294775 3.04241723 0 3 C0 2.01 0 1.02 0 0 Z " fill="#212121" transform="translate(256,783)"/>
<path d="M0 0 C-0.33 0.66 -0.66 1.32 -1 2 C-3.71446979 2.31241455 -6.33909361 2.51336592 -9.0625 2.625 C-9.82111328 2.66367187 -10.57972656 2.70234375 -11.36132812 2.7421875 C-13.24047195 2.83673562 -15.12020336 2.91946756 -17 3 C-15.29073557 0.91525781 -14.32252646 0.07538181 -11.66015625 -0.546875 C-10.80292969 -0.61390625 -9.94570313 -0.6809375 -9.0625 -0.75 C-8.20785156 -0.82734375 -7.35320313 -0.9046875 -6.47265625 -0.984375 C-4.10667647 -0.9993259 -2.25166952 -0.68960644 0 0 Z " fill="#19191A" transform="translate(559,587)"/>
<path d="M0 0 C2.8125 0.4375 2.8125 0.4375 4.8125 2.4375 C2.07028934 3.35157022 -0.54274518 3.94826205 -3.375 4.5 C-4.72658203 4.76490234 -4.72658203 4.76490234 -6.10546875 5.03515625 C-6.79253906 5.16792969 -7.47960937 5.30070312 -8.1875 5.4375 C-4.0365566 0.55403718 -4.0365566 0.55403718 0 0 Z " fill="#1D1E1E" transform="translate(168.1875,425.5625)"/>
<path d="M0 0 C1.00496852 3.01490557 1.10335303 5.04181692 1.0625 8.1875 C1.05347656 9.08855469 1.04445312 9.98960937 1.03515625 10.91796875 C1.02355469 11.60503906 1.01195312 12.29210937 1 13 C0.01 13 -0.98 13 -2 13 C-2.05416188 11.39620659 -2.09286638 9.79188594 -2.125 8.1875 C-2.14820313 7.29417969 -2.17140625 6.40085937 -2.1953125 5.48046875 C-2 3 -2 3 0 0 Z " fill="#1B1B1A" transform="translate(132,554)"/>
<path d="M0 0 C1.9453125 -0.29296875 1.9453125 -0.29296875 4.125 -0.1875 C5.40375 -0.125625 6.6825 -0.06375 8 0 C8 0.33 8 0.66 8 1 C10.31 1.33 12.62 1.66 15 2 C15 2.33 15 2.66 15 3 C9.39 3 3.78 3 -2 3 C-1.34 2.01 -0.68 1.02 0 0 Z " fill="#1A1B1B" transform="translate(504,676)"/>
<path d="M0 0 C0.33 0.66 0.66 1.32 1 2 C-0.299375 1.979375 -1.59875 1.95875 -2.9375 1.9375 C-4.29165633 1.91600546 -5.64756083 1.92851801 -7 2 C-7.33 2.33 -7.66 2.66 -8 3 C-9.99958364 3.04080783 -12.00045254 3.04254356 -14 3 C-13.67 2.01 -13.34 1.02 -13 0 C-11.58456585 -0.19658808 -10.16755969 -0.38187546 -8.75 -0.5625 C-7.96109375 -0.66691406 -7.1721875 -0.77132812 -6.359375 -0.87890625 C-3.95874887 -1.00211719 -2.25079123 -0.83159765 0 0 Z " fill="#1D1D1E" transform="translate(701,706)"/>
<path d="M0 0 C1.23556641 0.01740234 1.23556641 0.01740234 2.49609375 0.03515625 C3.32238281 0.04417969 4.14867187 0.05320312 5 0.0625 C5.63808594 0.07410156 6.27617187 0.08570313 6.93359375 0.09765625 C6.93359375 0.42765625 6.93359375 0.75765625 6.93359375 1.09765625 C9.90359375 1.59265625 9.90359375 1.59265625 12.93359375 2.09765625 C12.93359375 2.42765625 12.93359375 2.75765625 12.93359375 3.09765625 C10.82970806 3.15167899 8.72542661 3.19045881 6.62109375 3.22265625 C4.86345703 3.25746094 4.86345703 3.25746094 3.0703125 3.29296875 C-0.06640625 3.09765625 -0.06640625 3.09765625 -3.06640625 1.09765625 C-2.06640625 0.09765625 -2.06640625 0.09765625 0 0 Z " fill="#191819" transform="translate(466.06640625,673.90234375)"/>
<path d="M0 0 C-0.33 0.66 -0.66 1.32 -1 2 C-3.50390625 2.6328125 -3.50390625 2.6328125 -6.5625 3.125 C-8.08037109 3.37636719 -8.08037109 3.37636719 -9.62890625 3.6328125 C-10.80259766 3.81457031 -10.80259766 3.81457031 -12 4 C-12.33 3.01 -12.66 2.02 -13 1 C-10.525 1.495 -10.525 1.495 -8 2 C-8 1.34 -8 0.68 -8 0 C-4.94736336 -0.98120464 -3.05263664 -0.98120464 0 0 Z " fill="#181818" transform="translate(523,421)"/>
<path d="M0 0 C0.80824219 0.10183594 1.61648438 0.20367187 2.44921875 0.30859375 C3.06410156 0.39238281 3.67898438 0.47617187 4.3125 0.5625 C2.3125 2.5625 2.3125 2.5625 0.1484375 2.7578125 C-1.06972656 2.72300781 -1.06972656 2.72300781 -2.3125 2.6875 C-3.12976563 2.66945313 -3.94703125 2.65140625 -4.7890625 2.6328125 C-5.41554688 2.60960937 -6.04203125 2.58640625 -6.6875 2.5625 C-7.0175 1.9025 -7.3475 1.2425 -7.6875 0.5625 C-4.59271121 -0.46909626 -3.16118607 -0.41232862 0 0 Z " fill="#232323" transform="translate(543.6875,483.4375)"/>
<path d="M0 0 C0.99 0 1.98 0 3 0 C2.67 3.63 2.34 7.26 2 11 C-0.5986701 8.4013299 -0.63249261 6.60157242 -1 3 C-0.67 2.01 -0.34 1.02 0 0 Z " fill="#171717" transform="translate(153,616)"/>
<path d="M0 0 C2.83833554 1.13533421 4.80962228 2.29083424 7.125 4.25 C4.01242431 4.25 2.01734315 4.07638376 -0.875 3.25 C-0.875 2.59 -0.875 1.93 -0.875 1.25 C-2.195 0.92 -3.515 0.59 -4.875 0.25 C-2.875 -0.75 -2.875 -0.75 0 0 Z " fill="#1B1C1C" transform="translate(590.875,685.75)"/>
<path d="M0 0 C-0.33 0.99 -0.66 1.98 -1 3 C-5.455 3.495 -5.455 3.495 -10 4 C-9.34 3.67 -8.68 3.34 -8 3 C-8 2.34 -8 1.68 -8 1 C-5.10765685 0.17361624 -3.11257569 0 0 0 Z " fill="#191818" transform="translate(483,493)"/>
<path d="M0 0 C0 0.66 0 1.32 0 2 C-0.66 2 -1.32 2 -2 2 C-2.33 2.66 -2.66 3.32 -3 4 C-5.31 3.01 -7.62 2.02 -10 1 C-10 0.67 -10 0.34 -10 0 C-6.33694766 -0.74926071 -3.57644848 -1.2380014 0 0 Z " fill="#1F1F1F" transform="translate(530,486)"/>
<path d="M0 0 C1.485 0.99 1.485 0.99 3 2 C2.67 4.97 2.34 7.94 2 11 C0.4375 9.4375 0.4375 9.4375 -1 7 C-0.6875 3.25 -0.6875 3.25 0 0 Z " fill="#1C1C1C" transform="translate(181,401)"/>
<path d="M0 0 C3.3 0 6.6 0 10 0 C9.67 0.99 9.34 1.98 9 3 C6.03 3 3.06 3 0 3 C0 2.01 0 1.02 0 0 Z " fill="#181818" transform="translate(653,723)"/>
<path d="M0 0 C5.75 1.875 5.75 1.875 8 3 C7.67 3.99 7.34 4.98 7 6 C2.545 4.02 2.545 4.02 -2 2 C-1.34 1.34 -0.68 0.68 0 0 Z " fill="#171818" transform="translate(604,396)"/>
<path d="M0 0 C0.66 0.33 1.32 0.66 2 1 C1.649375 1.7425 1.29875 2.485 0.9375 3.25 C-0.04509293 6.1322726 -0.0326802 7.21176345 1 10 C-1.52588702 7.63707344 -2.88820837 6.33537489 -4 3 C-2.68 2.01 -1.36 1.02 0 0 Z " fill="#F52635" transform="translate(333,673)"/>
<path d="M0 0 C0.33 0 0.66 0 1 0 C1.29036649 3.38115651 1.44908891 6.62919149 1 10 C-1.5 12.625 -1.5 12.625 -4 14 C-3.34 11.69 -2.68 9.38 -2 7 C-1.34 7 -0.68 7 0 7 C0 4.69 0 2.38 0 0 Z " fill="#0B0B0B" transform="translate(145,519)"/>
<path d="M0 0 C0 0.99 0 1.98 0 3 C-2.64 3.33 -5.28 3.66 -8 4 C-8 3.01 -8 2.02 -8 1 C-5.10765685 0.17361624 -3.11257569 0 0 0 Z " fill="#1D1D1D" transform="translate(562,393)"/>
<path d="M0 0 C0.66 0 1.32 0 2 0 C2.24339186 5.47631692 1.01840125 7.47239812 -2 12 C-1.85904936 10.3745692 -1.71207913 8.74965949 -1.5625 7.125 C-1.48128906 6.22007813 -1.40007812 5.31515625 -1.31640625 4.3828125 C-1 2 -1 2 0 0 Z " fill="#181718" transform="translate(123,120)"/>
<path d="M0 0 C0.33 0.66 0.66 1.32 1 2 C-5.14285714 7.57142857 -5.14285714 7.57142857 -10 8 C-6.88983545 4.71211176 -3.98381075 2.16264012 0 0 Z " fill="#F34A5B" transform="translate(315,601)"/>
<path d="M0 0 C2.64 0 5.28 0 8 0 C8 0.99 8 1.98 8 3 C5.03 3 2.06 3 -1 3 C-0.67 2.01 -0.34 1.02 0 0 Z " fill="#1E1D1D" transform="translate(522,589)"/>
<path d="M0 0 C1.98 0 3.96 0 6 0 C6 0.99 6 1.98 6 3 C4.02 3 2.04 3 0 3 C0 2.01 0 1.02 0 0 Z " fill="#1B1B1A" transform="translate(134,531)"/>
<path d="M0 0 C0.99 0.33 1.98 0.66 3 1 C4.6875 4.5625 4.6875 4.5625 6 8 C4.68 7.67 3.36 7.34 2 7 C1.34 4.69 0.68 2.38 0 0 Z " fill="#191919" transform="translate(578,513)"/>
<path d="M0 0 C0.66 0 1.32 0 2 0 C2.33 2.97 2.66 5.94 3 9 C2.01 9 1.02 9 0 9 C0 6 0 3 0 0 Z " fill="#242424" transform="translate(735,118)"/>
<path d="M0 0 C2.97 0 5.94 0 9 0 C8.01 1.485 8.01 1.485 7 3 C3.375 3.1875 3.375 3.1875 0 3 C0 2.01 0 1.02 0 0 Z " fill="#191A1A" transform="translate(691,723)"/>
<path d="M0 0 C0.66 0.33 1.32 0.66 2 1 C0.35 2.98 -1.3 4.96 -3 7 C-4.32 6.67 -5.64 6.34 -7 6 C-4.69 4.02 -2.38 2.04 0 0 Z " fill="#080908" transform="translate(347,493)"/>
<path d="M0 0 C0.66 0.66 1.32 1.32 2 2 C1.625 5.125 1.625 5.125 1 8 C0.01 8 -0.98 8 -2 8 C-1.125 1.125 -1.125 1.125 0 0 Z " fill="#1A1A1A" transform="translate(133,493)"/>
<path d="M0 0 C-0.33 1.32 -0.66 2.64 -1 4 C-2.32 4.33 -3.64 4.66 -5 5 C-5 4.01 -5 3.02 -5 2 C-2 0 -2 0 0 0 Z " fill="#171617" transform="translate(336,564)"/>
<path d="M0 0 C0.99 0.33 1.98 0.66 3 1 C3 1.66 3 2.32 3 3 C0.29120665 4.35439668 -2.00933268 4.06501451 -5 4 C-2.6875 1.9375 -2.6875 1.9375 0 0 Z " fill="#3A3A3B" transform="translate(192,412)"/>
</svg>
